%TF.GenerationSoftware,KiCad,Pcbnew,9.0.0*%
%TF.CreationDate,2025-03-28T00:52:52+01:00*%
%TF.ProjectId,DMX-Adapter-small-V3,444d582d-4164-4617-9074-65722d736d61,rev?*%
%TF.SameCoordinates,Original*%
%TF.FileFunction,Paste,Top*%
%TF.FilePolarity,Positive*%
%FSLAX46Y46*%
G04 Gerber Fmt 4.6, Leading zero omitted, Abs format (unit mm)*
G04 Created by KiCad (PCBNEW 9.0.0) date 2025-03-28 00:52:52*
%MOMM*%
%LPD*%
G01*
G04 APERTURE LIST*
G04 Aperture macros list*
%AMRoundRect*
0 Rectangle with rounded corners*
0 $1 Rounding radius*
0 $2 $3 $4 $5 $6 $7 $8 $9 X,Y pos of 4 corners*
0 Add a 4 corners polygon primitive as box body*
4,1,4,$2,$3,$4,$5,$6,$7,$8,$9,$2,$3,0*
0 Add four circle primitives for the rounded corners*
1,1,$1+$1,$2,$3*
1,1,$1+$1,$4,$5*
1,1,$1+$1,$6,$7*
1,1,$1+$1,$8,$9*
0 Add four rect primitives between the rounded corners*
20,1,$1+$1,$2,$3,$4,$5,0*
20,1,$1+$1,$4,$5,$6,$7,0*
20,1,$1+$1,$6,$7,$8,$9,0*
20,1,$1+$1,$8,$9,$2,$3,0*%
%AMRotRect*
0 Rectangle, with rotation*
0 The origin of the aperture is its center*
0 $1 length*
0 $2 width*
0 $3 Rotation angle, in degrees counterclockwise*
0 Add horizontal line*
21,1,$1,$2,0,0,$3*%
G04 Aperture macros list end*
%ADD10RoundRect,0.135000X0.135000X0.185000X-0.135000X0.185000X-0.135000X-0.185000X0.135000X-0.185000X0*%
%ADD11RoundRect,0.218750X-0.218750X-0.256250X0.218750X-0.256250X0.218750X0.256250X-0.218750X0.256250X0*%
%ADD12R,0.800000X1.700000*%
%ADD13RoundRect,0.140000X0.140000X0.170000X-0.140000X0.170000X-0.140000X-0.170000X0.140000X-0.170000X0*%
%ADD14RoundRect,0.225000X-0.250000X0.225000X-0.250000X-0.225000X0.250000X-0.225000X0.250000X0.225000X0*%
%ADD15RoundRect,0.225000X0.250000X-0.225000X0.250000X0.225000X-0.250000X0.225000X-0.250000X-0.225000X0*%
%ADD16R,0.700000X1.000000*%
%ADD17R,1.000000X0.800000*%
%ADD18RoundRect,0.135000X-0.135000X-0.185000X0.135000X-0.185000X0.135000X0.185000X-0.135000X0.185000X0*%
%ADD19RoundRect,0.075000X-0.662500X-0.075000X0.662500X-0.075000X0.662500X0.075000X-0.662500X0.075000X0*%
%ADD20RoundRect,0.075000X-0.075000X-0.662500X0.075000X-0.662500X0.075000X0.662500X-0.075000X0.662500X0*%
%ADD21RoundRect,0.140000X-0.140000X-0.170000X0.140000X-0.170000X0.140000X0.170000X-0.140000X0.170000X0*%
%ADD22RoundRect,0.218750X0.256250X-0.218750X0.256250X0.218750X-0.256250X0.218750X-0.256250X-0.218750X0*%
%ADD23RoundRect,0.140000X0.170000X-0.140000X0.170000X0.140000X-0.170000X0.140000X-0.170000X-0.140000X0*%
%ADD24RoundRect,0.135000X-0.185000X0.135000X-0.185000X-0.135000X0.185000X-0.135000X0.185000X0.135000X0*%
%ADD25RoundRect,0.140000X-0.170000X0.140000X-0.170000X-0.140000X0.170000X-0.140000X0.170000X0.140000X0*%
%ADD26RotRect,1.400000X1.200000X225.000000*%
%ADD27R,1.300000X0.450000*%
G04 APERTURE END LIST*
D10*
%TO.C,R7*%
X174020000Y-45250000D03*
X173000000Y-45250000D03*
%TD*%
D11*
%TO.C,D2*%
X173525000Y-41000000D03*
X175100000Y-41000000D03*
%TD*%
D12*
%TO.C,SW1*%
X178450000Y-45650000D03*
X175050000Y-45650000D03*
%TD*%
D13*
%TO.C,C5*%
X183170000Y-41830000D03*
X182210000Y-41830000D03*
%TD*%
D14*
%TO.C,C7*%
X154500000Y-29800000D03*
X154500000Y-31350000D03*
%TD*%
D15*
%TO.C,C12*%
X160350000Y-31025000D03*
X160350000Y-29475000D03*
%TD*%
D16*
%TO.C,SW2*%
X173350000Y-29650000D03*
X170350000Y-29650000D03*
X168850000Y-29650000D03*
D17*
X174850000Y-28750000D03*
X167350000Y-28750000D03*
X167350000Y-26450000D03*
X174850000Y-26450000D03*
%TD*%
D15*
%TO.C,C6*%
X184900000Y-41800000D03*
X184900000Y-40250000D03*
%TD*%
D18*
%TO.C,R4*%
X172880000Y-46400000D03*
X173900000Y-46400000D03*
%TD*%
D19*
%TO.C,U1*%
X176037500Y-33350000D03*
X176037500Y-33850000D03*
X176037500Y-34350000D03*
X176037500Y-34850000D03*
X176037500Y-35350000D03*
X176037500Y-35850000D03*
X176037500Y-36350000D03*
X176037500Y-36850000D03*
X176037500Y-37350000D03*
X176037500Y-37850000D03*
X176037500Y-38350000D03*
X176037500Y-38850000D03*
D20*
X177450000Y-40262500D03*
X177950000Y-40262500D03*
X178450000Y-40262500D03*
X178950000Y-40262500D03*
X179450000Y-40262500D03*
X179950000Y-40262500D03*
X180450000Y-40262500D03*
X180950000Y-40262500D03*
X181450000Y-40262500D03*
X181950000Y-40262500D03*
X182450000Y-40262500D03*
X182950000Y-40262500D03*
D19*
X184362500Y-38850000D03*
X184362500Y-38350000D03*
X184362500Y-37850000D03*
X184362500Y-37350000D03*
X184362500Y-36850000D03*
X184362500Y-36350000D03*
X184362500Y-35850000D03*
X184362500Y-35350000D03*
X184362500Y-34850000D03*
X184362500Y-34350000D03*
X184362500Y-33850000D03*
X184362500Y-33350000D03*
D20*
X182950000Y-31937500D03*
X182450000Y-31937500D03*
X181950000Y-31937500D03*
X181450000Y-31937500D03*
X180950000Y-31937500D03*
X180450000Y-31937500D03*
X179950000Y-31937500D03*
X179450000Y-31937500D03*
X178950000Y-31937500D03*
X178450000Y-31937500D03*
X177950000Y-31937500D03*
X177450000Y-31937500D03*
%TD*%
D21*
%TO.C,C1*%
X177210000Y-30380000D03*
X178170000Y-30380000D03*
%TD*%
D22*
%TO.C,D1*%
X197000000Y-33575000D03*
X197000000Y-32000000D03*
%TD*%
D18*
%TO.C,R3*%
X193330000Y-32000000D03*
X194350000Y-32000000D03*
%TD*%
D23*
%TO.C,C8*%
X174370000Y-35090000D03*
X174370000Y-34130000D03*
%TD*%
D24*
%TO.C,R1*%
X187150000Y-33680000D03*
X187150000Y-34700000D03*
%TD*%
D25*
%TO.C,C9*%
X174370000Y-36080000D03*
X174370000Y-37040000D03*
%TD*%
D26*
%TO.C,Y1*%
X170017919Y-34427919D03*
X168462284Y-35983554D03*
X169664365Y-37185635D03*
X171220000Y-35630000D03*
%TD*%
D27*
%TO.C,J1*%
X199350000Y-37800000D03*
X199350000Y-37150000D03*
X199350000Y-36500000D03*
X199350000Y-35850000D03*
X199350000Y-35200000D03*
%TD*%
D15*
%TO.C,C13*%
X162400000Y-31025000D03*
X162400000Y-29475000D03*
%TD*%
M02*
