M48
; DRILL file {KiCad 9.0.0} date 2025-03-28T00:52:49+0100
; FORMAT={-:-/ absolute / metric / decimal}
; #@! TF.CreationDate,2025-03-28T00:52:49+01:00
; #@! TF.GenerationSoftware,Kicad,Pcbnew,9.0.0
; #@! TF.FileFunction,Plated,1,2,PTH
FMAT,2
METRIC
; #@! TA.AperFunction,Plated,PTH,ViaDrill
T1C0.200
; #@! TA.AperFunction,Plated,PTH,ViaDrill
T2C0.300
; #@! TA.AperFunction,Plated,PTH,ComponentDrill
T3C0.550
; #@! TA.AperFunction,Plated,PTH,ViaDrill
T4C0.700
; #@! TA.AperFunction,Plated,PTH,ComponentDrill
T5C0.850
; #@! TA.AperFunction,Plated,PTH,ComponentDrill
T6C1.000
; #@! TA.AperFunction,Plated,PTH,ViaDrill
T7C1.200
; #@! TA.AperFunction,Plated,PTH,ComponentDrill
T8C1.200
; #@! TA.AperFunction,Plated,PTH,ComponentDrill
T9C1.600
; #@! TA.AperFunction,Plated,PTH,ComponentDrill
T10C2.200
%
G90
G05
T1
X160.05Y-40.05
X163.1Y-32.55
X171.35Y-29.65
X173.599Y-44.499
X174.164Y-39.914
X174.45Y-38.85
X174.75Y-43.55
X175.0Y-39.4
X176.0Y-39.95
X177.45Y-41.45
X177.6Y-46.4
X179.45Y-30.55
X180.15Y-38.85
X180.95Y-41.8
X187.7Y-42.6
X190.319Y-42.6
X198.05Y-33.9
X198.05Y-34.6
X198.55Y-34.25
X199.05Y-34.6
T2
X166.75Y-35.95
X172.65Y-35.6
X174.0Y-37.8
X174.5Y-33.35
X177.32Y-33.68
X177.32Y-36.68
X177.32Y-37.63
X178.27Y-33.23
X181.9Y-30.5
X182.7Y-42.55
X183.12Y-34.08
X183.184Y-33.154
X186.0Y-39.8
X187.1Y-30.5
X197.6Y-37.875
X197.6Y-38.575
X197.6Y-39.275
X198.4Y-38.825
X199.35Y-38.525
T4
X154.5Y-28.7
X154.5Y-32.5
X160.35Y-28.3
X162.4Y-28.3
X182.65Y-37.15
X188.0Y-37.15
X191.875Y-41.375
T6
X181.22Y-46.0
X182.95Y-27.0
X183.76Y-46.0
X185.49Y-27.0
X186.3Y-46.0
X188.03Y-27.0
X188.84Y-46.0
X190.57Y-27.0
T7
X196.35Y-41.45
X197.25Y-44.85
T8
X150.6Y-36.5
T9
X146.15Y-40.41
X146.785Y-32.69
T10
X156.85Y-44.85
X201.85Y-28.15
X201.85Y-44.85
T3
G00X202.875Y-32.625
M15
G01X203.525Y-32.625
M16
G05
G00X202.875Y-40.375
M15
G01X203.525Y-40.375
M16
G05
T5
G00X199.125Y-32.775
M15
G01X199.675Y-32.775
M16
G05
G00X199.125Y-40.225
M15
G01X199.675Y-40.225
M16
G05
M30
