%TF.GenerationSoftware,KiCad,Pcbnew,9.0.0*%
%TF.CreationDate,2025-03-28T00:52:52+01:00*%
%TF.ProjectId,DMX-Adapter-small-V3,444d582d-4164-4617-9074-65722d736d61,rev?*%
%TF.SameCoordinates,Original*%
%TF.FileFunction,Soldermask,Bot*%
%TF.FilePolarity,Negative*%
%FSLAX46Y46*%
G04 Gerber Fmt 4.6, Leading zero omitted, Abs format (unit mm)*
G04 Created by KiCad (PCBNEW 9.0.0) date 2025-03-28 00:52:52*
%MOMM*%
%LPD*%
G01*
G04 APERTURE LIST*
G04 Aperture macros list*
%AMRoundRect*
0 Rectangle with rounded corners*
0 $1 Rounding radius*
0 $2 $3 $4 $5 $6 $7 $8 $9 X,Y pos of 4 corners*
0 Add a 4 corners polygon primitive as box body*
4,1,4,$2,$3,$4,$5,$6,$7,$8,$9,$2,$3,0*
0 Add four circle primitives for the rounded corners*
1,1,$1+$1,$2,$3*
1,1,$1+$1,$4,$5*
1,1,$1+$1,$6,$7*
1,1,$1+$1,$8,$9*
0 Add four rect primitives between the rounded corners*
20,1,$1+$1,$2,$3,$4,$5,0*
20,1,$1+$1,$4,$5,$6,$7,0*
20,1,$1+$1,$6,$7,$8,$9,0*
20,1,$1+$1,$8,$9,$2,$3,0*%
G04 Aperture macros list end*
%ADD10C,1.000000*%
%ADD11RoundRect,0.135000X0.135000X0.185000X-0.135000X0.185000X-0.135000X-0.185000X0.135000X-0.185000X0*%
%ADD12RoundRect,0.225000X-0.225000X-0.250000X0.225000X-0.250000X0.225000X0.250000X-0.225000X0.250000X0*%
%ADD13R,1.700000X1.700000*%
%ADD14O,1.700000X1.700000*%
%ADD15C,1.200000*%
%ADD16C,4.400000*%
%ADD17C,1.700000*%
%ADD18C,3.100000*%
%ADD19C,2.300000*%
%ADD20O,0.800000X0.800000*%
%ADD21O,1.800000X1.150000*%
%ADD22O,2.000000X1.450000*%
%ADD23R,1.528000X0.650000*%
%ADD24RoundRect,0.135000X0.185000X-0.135000X0.185000X0.135000X-0.185000X0.135000X-0.185000X-0.135000X0*%
%ADD25RoundRect,0.150000X0.150000X-0.512500X0.150000X0.512500X-0.150000X0.512500X-0.150000X-0.512500X0*%
%ADD26RoundRect,0.140000X-0.140000X-0.170000X0.140000X-0.170000X0.140000X0.170000X-0.140000X0.170000X0*%
%ADD27RoundRect,0.140000X0.170000X-0.140000X0.170000X0.140000X-0.170000X0.140000X-0.170000X-0.140000X0*%
%ADD28RoundRect,0.375000X-0.375000X0.625000X-0.375000X-0.625000X0.375000X-0.625000X0.375000X0.625000X0*%
%ADD29RoundRect,0.500000X-1.400000X0.500000X-1.400000X-0.500000X1.400000X-0.500000X1.400000X0.500000X0*%
%ADD30RoundRect,0.135000X-0.135000X-0.185000X0.135000X-0.185000X0.135000X0.185000X-0.135000X0.185000X0*%
%ADD31RoundRect,0.250000X0.475000X-0.250000X0.475000X0.250000X-0.475000X0.250000X-0.475000X-0.250000X0*%
%ADD32RoundRect,0.140000X-0.170000X0.140000X-0.170000X-0.140000X0.170000X-0.140000X0.170000X0.140000X0*%
G04 APERTURE END LIST*
D10*
%TO.C,TP3*%
X160800000Y-38150000D03*
%TD*%
%TO.C,TP2*%
X160850000Y-34100000D03*
%TD*%
%TO.C,TP1*%
X162150000Y-32550000D03*
%TD*%
D11*
%TO.C,R5*%
X177970000Y-39950000D03*
X176950000Y-39950000D03*
%TD*%
D12*
%TO.C,C14*%
X176275000Y-44700000D03*
X177825000Y-44700000D03*
%TD*%
D13*
%TO.C,J3*%
X182950000Y-27000000D03*
D14*
X185490000Y-27000000D03*
X188030000Y-27000000D03*
X190570000Y-27000000D03*
%TD*%
D15*
%TO.C,SW2*%
X169600000Y-27600000D03*
X172600000Y-27600000D03*
%TD*%
D16*
%TO.C,H1*%
X201850000Y-28150000D03*
%TD*%
%TO.C,H2*%
X201850000Y-44850000D03*
%TD*%
D13*
%TO.C,J2*%
X188840000Y-46000000D03*
D14*
X186300000Y-46000000D03*
X183760000Y-46000000D03*
X181220000Y-46000000D03*
%TD*%
D17*
%TO.C,J4*%
X137260000Y-40310000D03*
X142340000Y-32690000D03*
D18*
X146150000Y-40410000D03*
X146785000Y-32690000D03*
D19*
X150600000Y-36500000D03*
%TD*%
D16*
%TO.C,H3*%
X156850000Y-44850000D03*
%TD*%
D20*
%TO.C,J1*%
X200450000Y-39000000D03*
X200450000Y-34000000D03*
D21*
X203200000Y-40375000D03*
D22*
X199400000Y-40225000D03*
X199400000Y-32775000D03*
D21*
X203200000Y-32625000D03*
%TD*%
D11*
%TO.C,R2*%
X160720000Y-32550000D03*
X159700000Y-32550000D03*
%TD*%
D23*
%TO.C,U2*%
X158122000Y-28700000D03*
X158122000Y-29970000D03*
X158122000Y-31240000D03*
X158122000Y-32510000D03*
X152700000Y-32510000D03*
X152700000Y-31240000D03*
X152700000Y-29970000D03*
X152700000Y-28700000D03*
%TD*%
D24*
%TO.C,R8*%
X159150000Y-39170000D03*
X159150000Y-38150000D03*
%TD*%
D25*
%TO.C,Q2*%
X159100000Y-36700000D03*
X157200000Y-36700000D03*
X158150000Y-34425000D03*
%TD*%
D26*
%TO.C,C2*%
X177310000Y-34430000D03*
X178270000Y-34430000D03*
%TD*%
D27*
%TO.C,C4*%
X178070000Y-37630000D03*
X178070000Y-36670000D03*
%TD*%
D28*
%TO.C,U3*%
X191750000Y-38575000D03*
X194050000Y-38575000D03*
D29*
X194050000Y-44875000D03*
D28*
X196350000Y-38575000D03*
%TD*%
D30*
%TO.C,R6*%
X172250000Y-29675000D03*
X173270000Y-29675000D03*
%TD*%
D31*
%TO.C,C11*%
X189350000Y-40500000D03*
X189350000Y-38600000D03*
%TD*%
D32*
%TO.C,C3*%
X182420000Y-33120000D03*
X182420000Y-34080000D03*
%TD*%
D31*
%TO.C,C10*%
X201200000Y-37450000D03*
X201200000Y-35550000D03*
%TD*%
M02*
